<svg version="1.1" id="Layer_1" xmlns="http://www.w3.org/2000/svg" xmlns:xlink="http://www.w3.org/1999/xlink" x="0px" y="0px"
	 width="100%" viewBox="0 0 784 1152" enable-background="new 0 0 784 1152" xml:space="preserve">
<path fill="#15b815" opacity="1.000000" stroke="none" 
	d="
M393.999023,577.165710 
	C405.323822,593.698486 416.695770,610.199219 427.961975,626.771790 
	C443.772675,650.029236 459.448364,673.378479 475.286407,696.617126 
	C490.772888,719.339966 506.459717,741.926270 521.931213,764.659119 
	C537.236877,787.148315 552.321228,809.788025 567.620483,832.281494 
	C578.630310,848.468445 589.919495,864.465393 600.930176,880.651672 
	C616.783386,903.956665 632.472412,927.373352 648.278809,950.710266 
	C658.857727,966.329346 669.516846,981.893982 680.143494,997.480713 
	C695.028564,1019.313354 709.922791,1041.139771 724.802124,1062.976318 
	C741.897766,1088.065430 758.962280,1113.175659 776.090271,1138.242676 
	C778.746948,1142.130737 781.670105,1145.836548 784.734985,1149.313354 
	C785.000000,1150.331421 785.000000,1151.662842 785.000000,1152.997070 
	C685.645752,1153.000000 586.291565,1153.000000 486.468689,1153.000000 
	C485.937134,1152.172852 486.169739,1151.148193 485.768250,1150.547363 
	C475.407379,1135.043213 465.037659,1119.544434 454.549255,1104.126465 
	C443.597717,1088.027588 432.454010,1072.059448 421.512817,1055.953613 
	C399.270325,1023.211853 377.136139,990.396667 354.902771,957.648804 
	C338.636841,933.690369 322.267731,909.802002 305.974091,885.862305 
	C288.947479,860.845703 271.958496,835.803589 254.948944,810.775391 
	C238.582153,786.692932 222.243546,762.591309 205.830780,738.540161 
	C189.688416,714.885376 173.405731,691.326111 157.299713,667.646667 
	C140.101730,642.361755 123.053223,616.975220 105.903572,591.657349 
	C102.553978,586.712280 99.039955,581.878662 94.880661,575.969116 
	C194.279755,575.969116 292.192719,575.969116 390.885834,575.994446 
	C392.443695,576.401733 393.221344,576.783752 393.999023,577.165710 
z"/>
<path fill="#676767" opacity="1.000000" stroke="none" 
	d="
M394.464294,577.104736 
	C393.221344,576.783752 392.443695,576.401733 391.352722,575.926819 
	C384.339233,565.693665 377.726074,555.494751 370.922333,545.424561 
	C351.649628,516.899109 332.310364,488.418579 312.975891,459.934967 
	C290.959808,427.500946 268.946136,395.065216 246.882874,362.663269 
	C230.655106,338.831329 214.304214,315.083160 198.089218,291.242523 
	C175.952820,258.695831 153.921768,226.077423 131.791580,193.526474 
	C115.582558,169.684891 99.257423,145.922256 83.036736,122.088585 
	C61.630787,90.636009 40.318336,59.119717 18.871126,27.695366 
	C13.318295,19.559387 7.412640,11.664211 1.334526,3.829212 
	C1.000000,3.001451 1.000000,2.002901 1.000000,1.002176 
	C100.354225,1.000000 199.708450,1.000000 299.531342,1.000002 
	C300.515656,2.427438 300.762634,4.036399 301.586395,5.255679 
	C320.334198,33.005314 339.126038,60.725273 357.949554,88.423668 
	C375.880798,114.809105 393.864014,141.159180 411.811951,167.533264 
	C426.229767,188.719894 440.608612,209.933060 455.042206,231.108932 
	C469.989044,253.037827 485.002716,274.921173 499.947845,296.851227 
	C519.446777,325.463593 538.874573,354.124481 558.394531,382.722504 
	C573.214966,404.435425 588.196655,426.038452 602.987671,447.771271 
	C619.426880,471.925934 635.658569,496.221924 652.118591,520.362305 
	C664.187744,538.063171 676.487610,555.606812 688.648560,573.245361 
	C689.260376,574.132690 689.529358,575.256287 690.285156,577.043701 
	C591.380737,577.043701 493.155182,577.043701 394.464294,577.104736 
z"/>
</svg>